<mxfile host="app.diagrams.net" modified="2023-11-08T19:37:43.820Z" agent="Mozilla/5.0 (Macintosh; Intel Mac OS X 10_15_7) AppleWebKit/537.36 (KHTML, like Gecko) Chrome/119.0.0.0 Safari/537.36" etag="RSAg_R0c1MwHKnMJOYXa" version="22.0.8" type="device">
  <diagram name="Страница — 1" id="qRwFgsUg9HYbpiKCg7Cj">
    <mxGraphModel dx="683" dy="412" grid="1" gridSize="10" guides="1" tooltips="1" connect="1" arrows="1" fold="1" page="1" pageScale="1" pageWidth="827" pageHeight="1169" math="0" shadow="0">
      <root>
        <mxCell id="0" />
        <mxCell id="1" parent="0" />
        <mxCell id="vO59HfVGz_WXDumB00xg-1" value="Browser" style="rounded=0;whiteSpace=wrap;html=1;fillColor=#d5e8d4;strokeColor=#82b366;fontSize=15;fontStyle=1" parent="1" vertex="1">
          <mxGeometry x="120" y="400" width="120" height="60" as="geometry" />
        </mxCell>
        <mxCell id="vO59HfVGz_WXDumB00xg-2" value="Server" style="rounded=0;whiteSpace=wrap;html=1;fillColor=#dae8fc;strokeColor=#6c8ebf;fontSize=15;fontStyle=1" parent="1" vertex="1">
          <mxGeometry x="360" y="400" width="120" height="60" as="geometry" />
        </mxCell>
        <mxCell id="vO59HfVGz_WXDumB00xg-3" value="Directory" style="rounded=0;whiteSpace=wrap;html=1;fillColor=#fad7ac;strokeColor=#b46504;fontSize=15;fontStyle=1;" parent="1" vertex="1">
          <mxGeometry x="600" y="400" width="120" height="60" as="geometry" />
        </mxCell>
        <mxCell id="vO59HfVGz_WXDumB00xg-4" value="" style="endArrow=classic;html=1;rounded=0;entryX=1;entryY=0.5;entryDx=0;entryDy=0;exitX=0;exitY=0.5;exitDx=0;exitDy=0;fillColor=#f5f5f5;strokeColor=#666666;strokeWidth=2;gradientColor=#b3b3b3;" parent="1" source="vO59HfVGz_WXDumB00xg-2" target="vO59HfVGz_WXDumB00xg-1" edge="1">
          <mxGeometry width="50" height="50" relative="1" as="geometry">
            <mxPoint x="390" y="470" as="sourcePoint" />
            <mxPoint x="440" y="420" as="targetPoint" />
          </mxGeometry>
        </mxCell>
        <mxCell id="vO59HfVGz_WXDumB00xg-5" value="Load File" style="edgeLabel;html=1;align=center;verticalAlign=middle;resizable=0;points=[];fontColor=#000000;" parent="vO59HfVGz_WXDumB00xg-4" vertex="1" connectable="0">
          <mxGeometry x="0.1929" relative="1" as="geometry">
            <mxPoint x="11" y="-10" as="offset" />
          </mxGeometry>
        </mxCell>
        <mxCell id="vO59HfVGz_WXDumB00xg-6" value="" style="endArrow=classic;html=1;rounded=0;entryX=1;entryY=0.5;entryDx=0;entryDy=0;exitX=0;exitY=0.5;exitDx=0;exitDy=0;fillColor=#f5f5f5;strokeColor=#666666;strokeWidth=2;gradientColor=#b3b3b3;" parent="1" edge="1">
          <mxGeometry width="50" height="50" relative="1" as="geometry">
            <mxPoint x="600" y="429.76" as="sourcePoint" />
            <mxPoint x="480" y="429.76" as="targetPoint" />
          </mxGeometry>
        </mxCell>
        <mxCell id="vO59HfVGz_WXDumB00xg-7" value="Read File" style="edgeLabel;html=1;align=center;verticalAlign=middle;resizable=0;points=[];fontColor=#000000;" parent="vO59HfVGz_WXDumB00xg-6" vertex="1" connectable="0">
          <mxGeometry x="0.1929" relative="1" as="geometry">
            <mxPoint x="11" y="-10" as="offset" />
          </mxGeometry>
        </mxCell>
        <mxCell id="vO59HfVGz_WXDumB00xg-15" value="" style="endArrow=none;html=1;entryX=0.25;entryY=1;entryDx=0;entryDy=0;startArrow=classic;startFill=1;endFill=0;curved=1;shadow=0;rounded=0;exitX=0.75;exitY=1;exitDx=0;exitDy=0;fillColor=#dae8fc;strokeColor=#6c8ebf;strokeWidth=2;gradientColor=#7ea6e0;" parent="1" source="vO59HfVGz_WXDumB00xg-1" target="vO59HfVGz_WXDumB00xg-2" edge="1">
          <mxGeometry width="50" height="50" relative="1" as="geometry">
            <mxPoint x="173.00000000000023" y="460.0000000000002" as="sourcePoint" />
            <mxPoint x="413.0000000000002" y="461.0000000000002" as="targetPoint" />
            <Array as="points">
              <mxPoint x="240" y="510" />
              <mxPoint x="360" y="510" />
            </Array>
          </mxGeometry>
        </mxCell>
        <mxCell id="vO59HfVGz_WXDumB00xg-16" value="Hot Reload" style="edgeLabel;html=1;align=center;verticalAlign=middle;resizable=0;points=[];" parent="vO59HfVGz_WXDumB00xg-15" vertex="1" connectable="0">
          <mxGeometry x="0.0198" y="4" relative="1" as="geometry">
            <mxPoint y="15" as="offset" />
          </mxGeometry>
        </mxCell>
        <mxCell id="vO59HfVGz_WXDumB00xg-19" value="" style="endArrow=classic;html=1;entryX=0.25;entryY=1;entryDx=0;entryDy=0;startArrow=none;startFill=0;endFill=1;curved=1;shadow=0;rounded=0;exitX=0.75;exitY=1;exitDx=0;exitDy=0;fillColor=#d5e8d4;strokeColor=#82b366;strokeWidth=2;gradientColor=#97d077;" parent="1" edge="1">
          <mxGeometry width="50" height="50" relative="1" as="geometry">
            <mxPoint x="210" y="400" as="sourcePoint" />
            <mxPoint x="390" y="400" as="targetPoint" />
            <Array as="points">
              <mxPoint x="240" y="350" />
              <mxPoint x="360" y="350" />
            </Array>
          </mxGeometry>
        </mxCell>
        <mxCell id="vO59HfVGz_WXDumB00xg-20" value="Listening for Events" style="edgeLabel;html=1;align=center;verticalAlign=middle;resizable=0;points=[];" parent="vO59HfVGz_WXDumB00xg-19" vertex="1" connectable="0">
          <mxGeometry x="0.0198" y="4" relative="1" as="geometry">
            <mxPoint y="-7" as="offset" />
          </mxGeometry>
        </mxCell>
        <mxCell id="vO59HfVGz_WXDumB00xg-21" value="" style="endArrow=classic;html=1;entryX=0.25;entryY=1;entryDx=0;entryDy=0;startArrow=none;startFill=0;endFill=1;curved=1;shadow=0;rounded=0;exitX=0.75;exitY=1;exitDx=0;exitDy=0;fillColor=#dae8fc;strokeColor=#6c8ebf;strokeWidth=2;gradientColor=#7ea6e0;" parent="1" edge="1">
          <mxGeometry width="50" height="50" relative="1" as="geometry">
            <mxPoint x="450" y="400" as="sourcePoint" />
            <mxPoint x="630" y="400" as="targetPoint" />
            <Array as="points">
              <mxPoint x="480" y="350" />
              <mxPoint x="600" y="350" />
            </Array>
          </mxGeometry>
        </mxCell>
        <mxCell id="vO59HfVGz_WXDumB00xg-22" value="Watching for Changes" style="edgeLabel;html=1;align=center;verticalAlign=middle;resizable=0;points=[];" parent="vO59HfVGz_WXDumB00xg-21" vertex="1" connectable="0">
          <mxGeometry x="0.0198" y="4" relative="1" as="geometry">
            <mxPoint y="-7" as="offset" />
          </mxGeometry>
        </mxCell>
        <mxCell id="vO59HfVGz_WXDumB00xg-23" value="" style="endArrow=none;html=1;entryX=0.25;entryY=1;entryDx=0;entryDy=0;startArrow=classic;startFill=1;endFill=0;curved=1;shadow=0;rounded=0;exitX=0.75;exitY=1;exitDx=0;exitDy=0;fillColor=#ffcd28;strokeColor=#d79b00;strokeWidth=2;gradientColor=#ffa500;" parent="1" edge="1">
          <mxGeometry width="50" height="50" relative="1" as="geometry">
            <mxPoint x="450" y="460" as="sourcePoint" />
            <mxPoint x="630" y="460" as="targetPoint" />
            <Array as="points">
              <mxPoint x="480" y="510" />
              <mxPoint x="600" y="510" />
            </Array>
          </mxGeometry>
        </mxCell>
        <mxCell id="vO59HfVGz_WXDumB00xg-24" value="Change Event" style="edgeLabel;html=1;align=center;verticalAlign=middle;resizable=0;points=[];" parent="vO59HfVGz_WXDumB00xg-23" vertex="1" connectable="0">
          <mxGeometry x="0.0198" y="4" relative="1" as="geometry">
            <mxPoint y="15" as="offset" />
          </mxGeometry>
        </mxCell>
      </root>
    </mxGraphModel>
  </diagram>
</mxfile>
